<svg width="283" height="44" viewBox="0 0 283 44" fill="none" xmlns="http://www.w3.org/2000/svg">
<path d="M16.1992 36.1963C12.8985 36.1963 10.0383 35.4272 7.61885 33.889C5.19935 32.3348 3.32465 30.1877 1.99472 27.4477C0.664804 24.7077 -0.00015639 21.5432 -0.00015639 17.954C-0.00015639 14.3808 0.656792 11.2884 1.97069 8.67659C3.28459 6.06482 5.15128 4.0459 7.57078 2.61984C10.0063 1.19378 12.8824 0.480755 16.1992 0.480755C18.8911 0.480755 21.2866 1.01753 23.3856 2.09108C25.5007 3.14861 27.2071 4.61473 28.505 6.48943C29.8029 8.34812 30.58 10.4712 30.8364 12.8586H22.256C22.0637 11.705 21.6952 10.7035 21.1504 9.85429C20.6216 8.98904 19.9166 8.31607 19.0353 7.83538C18.1701 7.35468 17.1366 7.11434 15.9349 7.11434C14.5408 7.11434 13.3231 7.46684 12.2816 8.17186C11.2401 8.86086 10.4309 10.0145 9.85407 11.6329C9.29327 13.2352 9.01286 15.3823 9.01286 18.0742C9.01286 22.1761 9.63776 25.1163 10.8876 26.8949C12.1534 28.6735 13.8358 29.5628 15.9349 29.5628C17.1366 29.5628 18.1701 29.2743 19.0353 28.6975C19.9166 28.1207 20.6216 27.3516 21.1504 26.3902C21.6952 25.4128 22.0637 24.3552 22.256 23.2176H30.8364C30.6121 24.9321 30.2035 26.5744 29.6106 28.1447C29.0338 29.699 28.1926 31.085 27.087 32.3027C25.9814 33.5205 24.5393 34.4738 22.7607 35.1628C20.9982 35.8518 18.811 36.1963 16.1992 36.1963ZM42.4857 36.1963C40.9154 36.1963 39.4814 35.8999 38.1835 35.3071C36.9016 34.6982 35.8842 33.8169 35.1311 32.6632C34.378 31.5096 34.0014 30.0995 34.0014 28.4331C34.0014 25.7252 35.043 23.6422 37.126 22.1841C39.209 20.726 42.4777 19.9889 46.9321 19.9729L49.4558 19.9489V18.675C49.4558 17.6976 49.1754 16.9686 48.6146 16.4879C48.0698 15.9912 47.2125 15.7508 46.0428 15.7668C45.2096 15.7829 44.3684 15.9831 43.5192 16.3677C42.67 16.7362 42.0691 17.4252 41.7166 18.4347H35.0109C35.107 16.56 35.6598 15.0298 36.6693 13.8441C37.6788 12.6583 39.0247 11.7851 40.7071 11.2243C42.4056 10.6635 44.3043 10.3831 46.4034 10.3831C49.1273 10.3831 51.2824 10.7115 52.8687 11.3685C54.455 12.0094 55.5846 12.9147 56.2576 14.0844C56.9466 15.2381 57.2911 16.6 57.2911 18.1703V35.7156H50.4893L49.7923 31.6057C49.0071 33.3522 48.0217 34.554 46.836 35.2109C45.6503 35.8679 44.2002 36.1963 42.4857 36.1963ZM45.2978 30.9327C45.8425 30.9327 46.3633 30.8366 46.86 30.6443C47.3567 30.452 47.7974 30.1877 48.1819 29.8512C48.5665 29.4987 48.8709 29.1141 49.0952 28.6975C49.3196 28.2809 49.4397 27.8323 49.4558 27.3516V23.9627L47.4368 23.9867C46.6036 23.9867 45.7384 24.0989 44.8411 24.3232C43.9598 24.5475 43.2148 24.9241 42.6059 25.4528C41.997 25.9656 41.6926 26.6786 41.6926 27.5919C41.6926 28.6334 42.0531 29.4506 42.7741 30.0434C43.4952 30.6363 44.3364 30.9327 45.2978 30.9327ZM62.4232 35.7156V10.8638H70.3066V17.2329C70.6912 15.9351 71.244 14.7734 71.965 13.7479C72.7021 12.7064 73.6074 11.8892 74.6809 11.2964C75.7545 10.6875 76.9963 10.3831 78.4063 10.3831C78.5826 10.3831 78.7348 10.3911 78.863 10.4071C79.0072 10.4071 79.0953 10.4231 79.1274 10.4552V18.2184C79.0472 18.1863 78.9431 18.1623 78.8149 18.1463C78.7028 18.1302 78.5826 18.1222 78.4544 18.1222C76.8841 17.962 75.5863 17.986 74.5608 18.1943C73.5513 18.4026 72.7502 18.7391 72.1573 19.2038C71.5805 19.6685 71.1719 20.2213 70.9315 20.8622C70.7072 21.5031 70.595 22.2001 70.595 22.9532V35.7156H62.4232ZM82.7025 43.4548V10.8638H90.8984L90.9224 14.0844C91.339 13.4755 91.8277 12.9387 92.3885 12.4741C92.9653 12.0094 93.5822 11.6248 94.2392 11.3204C94.8961 11.016 95.5771 10.7836 96.2821 10.6234C97.0032 10.4632 97.7162 10.3831 98.4212 10.3831C100.216 10.3831 101.818 10.8397 103.228 11.753C104.638 12.6664 105.752 14.0684 106.569 15.9591C107.386 17.8498 107.795 20.2453 107.795 23.1455C107.795 26.238 107.33 28.7456 106.401 30.6684C105.471 32.5751 104.23 33.9771 102.675 34.8744C101.137 35.7557 99.4387 36.1963 97.58 36.1963C96.9231 36.1963 96.2741 36.1082 95.6332 35.932C94.9923 35.7717 94.3834 35.5234 93.8066 35.1869C93.2297 34.8504 92.693 34.4498 92.1962 33.9851C91.6995 33.5044 91.2589 32.9516 90.8743 32.3267V43.4548H82.7025ZM95.513 30.2838C96.7949 30.2838 97.8925 29.723 98.8058 28.6014C99.7191 27.4797 100.176 25.6771 100.176 23.1936C100.176 20.9824 99.7271 19.2679 98.8298 18.0501C97.9485 16.8324 96.8429 16.2235 95.513 16.2235C93.9267 16.2235 92.757 16.9045 92.004 18.2664C91.2509 19.6124 90.8743 21.2548 90.8743 23.1936C90.8743 24.3793 91.0346 25.5169 91.355 26.6065C91.6915 27.6961 92.1962 28.5853 92.8692 29.2743C93.5582 29.9473 94.4395 30.2838 95.513 30.2838ZM116.32 35.7156V8.1959H106.153V0.961449H134.634V8.1959H124.539V35.7156H116.32ZM137.813 35.7156V10.8638H145.697V17.2329C146.081 15.9351 146.634 14.7734 147.355 13.7479C148.092 12.7064 148.998 11.8892 150.071 11.2964C151.145 10.6875 152.386 10.3831 153.796 10.3831C153.973 10.3831 154.125 10.3911 154.253 10.4071C154.397 10.4071 154.485 10.4231 154.517 10.4552V18.2184C154.437 18.1863 154.333 18.1623 154.205 18.1463C154.093 18.1302 153.973 18.1222 153.845 18.1222C152.274 17.962 150.976 17.986 149.951 18.1943C148.941 18.4026 148.14 18.7391 147.547 19.2038C146.971 19.6685 146.562 20.2213 146.322 20.8622C146.097 21.5031 145.985 22.2001 145.985 22.9532V35.7156H137.813ZM165.241 36.1963C163.671 36.1963 162.237 35.8999 160.939 35.3071C159.657 34.6982 158.64 33.8169 157.886 32.6632C157.133 31.5096 156.757 30.0995 156.757 28.4331C156.757 25.7252 157.798 23.6422 159.881 22.1841C161.964 20.726 165.233 19.9889 169.688 19.9729L172.211 19.9489V18.675C172.211 17.6976 171.931 16.9686 171.37 16.4879C170.825 15.9912 169.968 15.7508 168.798 15.7668C167.965 15.7829 167.124 15.9831 166.275 16.3677C165.425 16.7362 164.824 17.4252 164.472 18.4347H157.766C157.862 16.56 158.415 15.0298 159.425 13.8441C160.434 12.6583 161.78 11.7851 163.463 11.2243C165.161 10.6635 167.06 10.3831 169.159 10.3831C171.883 10.3831 174.038 10.7115 175.624 11.3685C177.21 12.0094 178.34 12.9147 179.013 14.0844C179.702 15.2381 180.046 16.6 180.046 18.1703V35.7156H173.245L172.548 31.6057C171.763 33.3522 170.777 34.554 169.591 35.2109C168.406 35.8679 166.956 36.1963 165.241 36.1963ZM168.053 30.9327C168.598 30.9327 169.119 30.8366 169.615 30.6443C170.112 30.452 170.553 30.1877 170.937 29.8512C171.322 29.4987 171.626 29.1141 171.851 28.6975C172.075 28.2809 172.195 27.8323 172.211 27.3516V23.9627L170.192 23.9867C169.359 23.9867 168.494 24.0989 167.597 24.3232C166.715 24.5475 165.97 24.9241 165.361 25.4528C164.752 25.9656 164.448 26.6786 164.448 27.5919C164.448 28.6334 164.808 29.4506 165.53 30.0434C166.251 30.6363 167.092 30.9327 168.053 30.9327ZM196.355 36.1963C194.015 36.1963 191.916 35.6756 190.058 34.6341C188.215 33.5766 186.757 32.0864 185.683 30.1636C184.626 28.2408 184.097 25.9896 184.097 23.4099C184.097 20.8301 184.618 18.5709 185.659 16.6321C186.701 14.6773 188.143 13.147 189.986 12.0415C191.828 10.9359 193.951 10.3831 196.355 10.3831C198.566 10.3831 200.449 10.8477 202.003 11.7771C203.573 12.6904 204.783 13.9162 205.632 15.4544C206.497 16.9766 206.97 18.643 207.05 20.4536H200.345C200.264 19.8928 200.08 19.3079 199.792 18.6991C199.503 18.0902 199.087 17.5774 198.542 17.1608C198.013 16.7282 197.308 16.5119 196.427 16.5119C195.001 16.5119 193.847 17.0807 192.966 18.2184C192.101 19.34 191.668 21.0384 191.668 23.3137C191.668 25.557 192.109 27.3115 192.99 28.5773C193.887 29.8432 195.081 30.4761 196.571 30.4761C197.436 30.4761 198.141 30.2437 198.686 29.7791C199.231 29.3144 199.64 28.7776 199.912 28.1687C200.184 27.5599 200.353 27.0231 200.417 26.5584H206.954C206.906 28.3049 206.441 29.9073 205.56 31.3654C204.695 32.8235 203.477 33.9932 201.907 34.8744C200.353 35.7557 198.502 36.1963 196.355 36.1963ZM211.514 35.7156V6.11234e-05H219.685V20.1892L227.665 10.8638H236.317L227.28 20.9583L236.51 35.7156H228.482L222.233 25.7893L219.685 28.6014V35.7156H211.514ZM250.213 36.1963C247.697 36.1963 245.478 35.6756 243.555 34.6341C241.648 33.5926 240.158 32.1265 239.085 30.2357C238.027 28.345 237.498 26.1258 237.498 23.5781C237.498 21.1586 237.979 18.9554 238.941 16.9686C239.918 14.9657 241.328 13.3714 243.171 12.1857C245.013 10.9839 247.233 10.3831 249.828 10.3831C252.456 10.3831 254.651 10.9359 256.414 12.0415C258.176 13.131 259.498 14.6372 260.379 16.56C261.277 18.4667 261.725 20.6539 261.725 23.1215V25.1644H245.55C245.534 26.302 245.71 27.2634 246.079 28.0486C246.447 28.8177 246.968 29.4025 247.641 29.8031C248.314 30.2037 249.099 30.404 249.996 30.404C251.022 30.404 251.927 30.1957 252.712 29.7791C253.514 29.3464 254.098 28.6014 254.467 27.5438H261.774C261.501 29.3545 260.78 30.9087 259.61 32.2066C258.457 33.4884 257.047 34.4738 255.38 35.1628C253.714 35.8518 251.991 36.1963 250.213 36.1963ZM245.526 20.4536H254.13C254.13 19.6364 253.97 18.8913 253.65 18.2184C253.329 17.5294 252.849 16.9846 252.208 16.584C251.583 16.1834 250.79 15.9831 249.828 15.9831C248.979 15.9831 248.226 16.1995 247.569 16.6321C246.928 17.0487 246.423 17.6015 246.055 18.2905C245.702 18.9634 245.526 19.6845 245.526 20.4536ZM266.296 35.7156V10.8638H274.179V17.2329C274.564 15.9351 275.117 14.7734 275.838 13.7479C276.575 12.7064 277.48 11.8892 278.553 11.2964C279.627 10.6875 280.869 10.3831 282.279 10.3831C282.455 10.3831 282.607 10.3911 282.736 10.4071C282.88 10.4071 282.968 10.4231 283 10.4552V18.2184C282.92 18.1863 282.816 18.1623 282.687 18.1463C282.575 18.1302 282.455 18.1222 282.327 18.1222C280.757 17.962 279.459 17.986 278.433 18.1943C277.424 18.4026 276.623 18.7391 276.03 19.2038C275.453 19.6685 275.044 20.2213 274.804 20.8622C274.58 21.5031 274.468 22.2001 274.468 22.9532V35.7156H266.296Z" fill="#4A90E2"/>
</svg>
