<svg width="50" height="50" viewBox="0 0 50 50" fill="none" xmlns="http://www.w3.org/2000/svg">
<path d="M48.9785 46.1055H1.02148V3.89453H48.9785V46.1055ZM3.01953 44.1074H46.9805V5.89258H3.01953V44.1074Z" fill="white"/>
<path d="M36.1562 8.74023H33.6592V10.7383H36.1562V8.74023Z" fill="white"/>
<path d="M40.6309 8.74023H38.1338V10.7383H40.6309V8.74023Z" fill="white"/>
<path d="M45.1045 8.74023H42.6074V10.7383H45.1045V8.74023Z" fill="white"/>
<path d="M9.26855 16.2725H2.02051V14.2734H8.44141L10.6885 12.0264H21.7129L23.7197 14.0332H47.9795V16.0312H22.8916L20.8848 14.0244H11.5166L9.26855 16.2725Z" fill="white"/>
<path d="M33.8447 37.25L32.4326 35.8369L38.0498 30.2197L32.4326 24.6016L33.8447 23.1895L40.876 30.2197L33.8447 37.25Z" fill="white"/>
<path d="M16.1553 37.25L9.12402 30.2197L16.1553 23.1895L17.5674 24.6016L11.9502 30.2197L17.5674 35.8369L16.1553 37.25Z" fill="white"/>
<path d="M26.8816 20.5567L18.5042 39.059L20.3243 39.8832L28.7018 21.3808L26.8816 20.5567Z" fill="white"/>
<path d="M26.8437 33.4131H24.9473V35.4111H26.8437V33.4131Z" fill="white"/>
<path d="M30.5723 33.4131H28.6758V35.4111H30.5723V33.4131Z" fill="white"/>
</svg>
