<svg width="50" height="50" viewBox="0 0 50 50" fill="none" xmlns="http://www.w3.org/2000/svg">
<path d="M44.0625 22.0312H39.375C38.9062 22.0312 38.5938 21.7188 38.5938 21.25C38.5938 20.7812 38.9062 20.4688 39.375 20.4688H44.0625C45.3906 20.4688 46.4062 19.4531 46.4062 18.125V7.1875C46.4062 5.85938 45.3906 4.84375 44.0625 4.84375H5.78125C4.45312 4.84375 3.4375 5.85938 3.4375 7.1875V18.125C3.4375 19.4531 4.45312 20.4688 5.78125 20.4688H19.8438C20.3125 20.4688 20.625 20.7812 20.625 21.25C20.625 21.7188 20.3125 22.0312 19.8438 22.0312H5.78125C3.59375 22.0312 1.875 20.3125 1.875 18.125V7.1875C1.875 5 3.59375 3.28125 5.78125 3.28125H44.0625C46.25 3.28125 47.9688 5 47.9688 7.1875V18.125C47.9688 20.2344 46.25 22.0312 44.0625 22.0312Z" fill="white"/>
<path d="M39.1406 38.9062C38.9062 38.9062 38.75 38.8281 38.5938 38.6719L36.5625 36.6406C36.25 36.3281 36.25 35.8594 36.5625 35.5469C36.875 35.2344 37.3438 35.2344 37.6563 35.5469L39.6875 37.5781C40 37.8906 40 38.3594 39.6875 38.6719C39.5313 38.8281 39.2969 38.9062 39.1406 38.9062ZM40.9375 36.875C40.7031 36.875 40.5469 36.7969 40.3906 36.6406L38.0469 34.2969C37.7344 33.9844 37.7344 33.5156 38.0469 33.2031C38.3594 32.8906 38.8281 32.8906 39.1406 33.2031L41.4844 35.5469C41.7969 35.8594 41.7969 36.3281 41.4844 36.6406C41.3281 36.7969 41.1719 36.875 40.9375 36.875Z" fill="white"/>
<path d="M46.5625 46.7187C45.7812 46.7187 45 46.4062 44.375 45.7812L39.375 40.7812C38.125 39.5312 38.125 37.5781 39.375 36.3281C40.625 35.0781 42.5781 35.0781 43.8281 36.3281L48.8281 41.3281C50.0781 42.5781 50.0781 44.5312 48.8281 45.7812C48.125 46.4844 47.3438 46.7187 46.5625 46.7187ZM41.5625 37.1094C41.1719 37.1094 40.7812 37.2656 40.4687 37.5781C39.8437 38.2031 39.8437 39.1406 40.4687 39.7656L45.4688 44.7656C46.0938 45.3906 47.0312 45.3906 47.6562 44.7656C48.2812 44.1406 48.2812 43.2031 47.6562 42.5781L42.6562 37.5781C42.4219 37.2656 41.9531 37.1094 41.5625 37.1094ZM29.5312 38.75C26.4062 38.75 23.3594 37.5 21.1719 35.2344C16.5625 30.625 16.5625 23.0469 21.1719 18.4375C23.4375 16.1719 26.4062 14.9219 29.5312 14.9219C32.6562 14.9219 35.7031 16.1719 37.8906 18.4375C42.5 23.0469 42.5 30.625 37.8906 35.2344C35.7031 37.5 32.7344 38.75 29.5312 38.75ZM29.5312 16.5625C26.7969 16.5625 24.2188 17.6562 22.2656 19.6094C18.2812 23.5938 18.2812 30.1562 22.2656 34.2188C24.2188 36.1719 26.7969 37.2656 29.5312 37.2656C32.2656 37.2656 34.8437 36.1719 36.7969 34.2188C40.7812 30.2344 40.7812 23.6719 36.7969 19.6094C34.8437 17.5781 32.2656 16.5625 29.5312 16.5625Z" fill="white"/>
<path d="M36.5625 31.4062C36.4062 31.4062 36.3281 31.4062 36.1719 31.3281C35.7812 31.0937 35.625 30.625 35.8594 30.2343C36.25 29.5312 36.4844 28.8281 36.5625 28.125C36.6406 27.7343 37.0312 27.4218 37.5 27.5C37.8906 27.5781 38.2031 27.9687 38.125 28.4375C37.9687 29.375 37.6562 30.2343 37.2656 31.0156C37.1094 31.25 36.7969 31.4062 36.5625 31.4062ZM29.5312 35.5468C27.2656 35.5468 25 34.6875 23.3594 32.9687C23.0469 32.6562 23.0469 32.1875 23.3594 31.875C23.6719 31.5625 24.1406 31.5625 24.4531 31.875C27.0312 34.4531 31.3281 34.6875 34.1406 32.2656C34.4531 31.9531 35 32.0312 35.2344 32.3437C35.5469 32.6562 35.4688 33.2031 35.1562 33.4375C33.5156 34.9218 31.5625 35.5468 29.5312 35.5468Z" fill="white"/>
<path d="M14.375 18.125H6.5625C6.09375 18.125 5.78125 17.8125 5.78125 17.3438C5.78125 16.875 6.09375 16.5625 6.5625 16.5625H14.375C14.8438 16.5625 15.1562 16.875 15.1562 17.3438C15.1562 17.8125 14.8438 18.125 14.375 18.125ZM9.6875 27.5H6.5625C6.09375 27.5 5.78125 27.1875 5.78125 26.7188C5.78125 26.25 6.09375 25.9375 6.5625 25.9375H9.6875C10.1562 25.9375 10.4687 26.25 10.4687 26.7188C10.4687 27.1875 10.1562 27.5 9.6875 27.5ZM12.0312 33.75H6.5625C6.09375 33.75 5.78125 33.4375 5.78125 32.9688C5.78125 32.5 6.09375 32.1875 6.5625 32.1875H12.0312C12.5 32.1875 12.8125 32.5 12.8125 32.9688C12.8125 33.4375 12.5 33.75 12.0312 33.75ZM14.375 30.625H6.5625C6.09375 30.625 5.78125 30.3125 5.78125 29.8438C5.78125 29.375 6.09375 29.0625 6.5625 29.0625H14.375C14.8438 29.0625 15.1562 29.375 15.1562 29.8438C15.1562 30.3125 14.8438 30.625 14.375 30.625Z" fill="white"/>
</svg>
