<svg width="50" height="50" viewBox="0 0 50 50" fill="none" xmlns="http://www.w3.org/2000/svg">
<path d="M47.7524 35.3515H46.4844V13.4048C46.4807 12.1579 45.9846 10.9629 45.1039 10.0801C44.2233 9.19724 43.0295 8.69811 41.7826 8.69137H31.5092C31.4325 8.45022 31.2821 8.23919 31.0792 8.088C30.8763 7.93681 30.631 7.85308 30.378 7.84859C30.26 7.84715 30.1424 7.86264 30.0287 7.89459L28.6201 8.26637L28.0273 6.93473C27.9498 6.76015 27.8325 6.60609 27.685 6.4848C27.5374 6.3635 27.3635 6.27832 27.1772 6.23603C26.991 6.19374 26.7974 6.1955 26.6119 6.24119C26.4264 6.28687 26.2541 6.37521 26.1088 6.49918L25 7.44293L23.891 6.49928C23.7455 6.3756 23.5731 6.28755 23.3876 6.24212C23.2021 6.19669 23.0086 6.19513 22.8224 6.23757C22.6362 6.28001 22.4624 6.36528 22.3149 6.4866C22.1674 6.60792 22.0502 6.76196 21.9727 6.93648L21.3806 8.26959L19.9725 7.90084C19.8173 7.85728 19.655 7.84498 19.4951 7.86466C19.3351 7.88434 19.1807 7.93561 19.0407 8.01549C18.7782 8.16269 18.5817 8.40438 18.4911 8.69137H8.21738C6.97045 8.69811 5.77668 9.19724 4.89605 10.0801C4.01542 10.9629 3.51926 12.1579 3.51562 13.4048V35.3515H2.24756C2.14653 35.3481 2.04584 35.3649 1.95142 35.401C1.857 35.4371 1.77077 35.4918 1.69782 35.5617C1.62486 35.6317 1.56666 35.7156 1.52665 35.8084C1.48663 35.9012 1.46562 36.0011 1.46484 36.1022V39.1057C1.46655 39.7189 1.58933 40.3257 1.82613 40.8913C2.06293 41.4569 2.40909 41.9702 2.84474 42.4017C3.2804 42.8332 3.79698 43.1744 4.36483 43.4058C4.93269 43.6372 5.54064 43.7541 6.15381 43.75H43.8462C44.4594 43.7541 45.0673 43.6372 45.6352 43.4058C46.203 43.1744 46.7196 42.8332 47.1553 42.4017C47.5909 41.9702 47.9371 41.4569 48.1739 40.8913C48.4107 40.3257 48.5334 39.7189 48.5352 39.1057V36.1022C48.5344 36.0011 48.5134 35.9012 48.4734 35.8084C48.4333 35.7156 48.3751 35.6317 48.3022 35.5617C48.2292 35.4918 48.143 35.4371 48.0486 35.401C47.9542 35.3649 47.8535 35.3481 47.7524 35.3515ZM44.9219 13.4048V35.3515H42.5781V13.6296C42.5815 13.5313 42.5645 13.4332 42.5282 13.3417C42.4919 13.2502 42.4371 13.1672 42.3673 13.0978C42.2974 13.0284 42.214 12.9742 42.1223 12.9385C42.0305 12.9029 41.9324 12.8866 41.834 12.8906H33.6924L33.8036 12.6552C33.8905 12.4844 33.9368 12.2959 33.9391 12.1043C33.9414 11.9127 33.8996 11.7231 33.8169 11.5502C33.7342 11.3774 33.6128 11.2259 33.4622 11.1074C33.3115 10.989 33.1356 10.9068 32.9481 10.8672L31.5224 10.5743L31.5321 10.2541H41.7831C42.6157 10.2605 43.4121 10.5948 43.9997 11.1847C44.5873 11.7745 44.9187 12.5723 44.9219 13.4048ZM15.4542 16.5178C15.5241 16.6113 15.6069 16.6943 15.7003 16.7644L16.8679 17.6413L16.1966 18.9337C16.1085 19.1033 16.0613 19.291 16.0585 19.482C16.0557 19.673 16.0975 19.862 16.1805 20.0341C16.2635 20.2061 16.3856 20.3564 16.5369 20.473C16.6881 20.5897 16.8645 20.6694 17.0521 20.7059L18.4778 20.9835L18.4323 22.4394C18.4233 22.7138 18.5068 22.9833 18.6693 23.2047C18.8317 23.426 19.0638 23.5864 19.3283 23.6601L17.1303 28.9967C17.0333 29.2324 17.0057 29.4909 17.0509 29.7418C17.096 29.9926 17.212 30.2253 17.3851 30.4123C17.5582 30.5994 17.7812 30.733 18.0278 30.7974C18.2744 30.8618 18.5343 30.8543 18.7768 30.7758L20.7173 30.1474L21.563 31.8811C21.676 32.1128 21.8536 32.3069 22.0744 32.4399C22.2952 32.5729 22.5498 32.6392 22.8075 32.6307C23.0651 32.6222 23.3148 32.5393 23.5264 32.392C23.738 32.2448 23.9024 32.0394 23.9999 31.8007L25.0328 29.271L25.9996 31.6342C26.097 31.8729 26.2615 32.0783 26.473 32.2256C26.6846 32.3728 26.9343 32.4557 27.192 32.4643C27.4496 32.4728 27.7042 32.4066 27.9251 32.2736C28.1459 32.1406 28.3235 31.9465 28.4365 31.7148L29.2822 29.981L31.2229 30.6094C31.4653 30.688 31.7252 30.6955 31.9718 30.6311C32.2184 30.5666 32.4415 30.433 32.6146 30.2459C32.7877 30.0589 32.9037 29.8262 32.9488 29.5753C32.9939 29.3244 32.9663 29.0659 32.8692 28.8302L30.7324 23.6417C30.9822 23.5577 31.1983 23.3956 31.3487 23.1792C31.4992 22.9629 31.5759 22.7039 31.5677 22.4405L31.5221 20.9839L32.9478 20.7064C33.1354 20.6699 33.3118 20.5901 33.4631 20.4735C33.6144 20.3569 33.7364 20.2066 33.8195 20.0345C33.9025 19.8625 33.9443 19.6734 33.9415 19.4824C33.9387 19.2914 33.8914 19.1037 33.8033 18.9341L33.1317 17.6415L34.2995 16.7645C34.4285 16.6676 34.5371 16.5463 34.6192 16.4074C34.7013 16.2685 34.7552 16.1148 34.7778 15.9551C34.8005 15.7954 34.7915 15.6328 34.7513 15.4766C34.7111 15.3203 34.6406 15.1735 34.5437 15.0446C34.4733 14.958 34.3905 14.8823 34.298 14.82L33.7804 14.4532H41.0156V35.3515H30.7306C30.6236 35.3487 30.5173 35.3683 30.4184 35.409C30.3194 35.4497 30.2301 35.5107 30.1562 35.5879L29.3632 36.4216C29.0688 36.7352 28.7126 36.9842 28.3171 37.153C27.9216 37.3218 27.4953 37.4067 27.0653 37.4023H22.9345C22.5039 37.4053 22.0775 37.319 21.682 37.1489C21.2865 36.9788 20.9305 36.7286 20.6365 36.414L19.8437 35.5786C19.7692 35.5026 19.6796 35.4431 19.5807 35.404C19.4818 35.3649 19.3757 35.347 19.2694 35.3515H8.98438V14.4531H16.2194L15.7019 14.8199C15.573 14.9143 15.4643 15.0334 15.382 15.1703C15.2997 15.3071 15.2454 15.459 15.2224 15.617C15.1994 15.7751 15.2081 15.9361 15.2479 16.0908C15.2878 16.2454 15.3581 16.3906 15.4546 16.5178H15.4542ZM28.9355 23.3808L31.2387 28.9724L29.5772 28.4343C29.271 28.3365 28.9399 28.3519 28.6441 28.4776C28.3482 28.6033 28.1073 28.8311 27.9652 29.1194L27.2553 30.575L24.7152 24.3673L25 24.1246L26.1089 25.0683C26.33 25.2576 26.6116 25.3615 26.9027 25.3613C26.9363 25.3613 26.9701 25.3599 27.0039 25.3572C27.224 25.3392 27.4351 25.2624 27.6152 25.1346C27.7953 25.0069 27.9377 24.833 28.0273 24.6313L28.6194 23.2982L28.9355 23.3808ZM23.4156 25.3171L24.1888 27.2069L22.7458 30.741L22.036 29.2859C21.8939 28.9978 21.6531 28.7702 21.3574 28.6445C21.0617 28.5189 20.7308 28.5034 20.4247 28.601L18.7631 29.1391L21.1426 23.3606L21.3808 23.2982L21.9727 24.6317C22.0921 24.899 22.303 25.1149 22.5675 25.2405C22.8319 25.3662 23.1325 25.3933 23.4151 25.3171H23.4156ZM20.0488 10.8195L20.0084 9.52545L21.2593 9.85309C21.5413 9.92778 21.8407 9.89934 22.1036 9.77289C22.3665 9.64643 22.5756 9.43028 22.6933 9.16334L23.2192 7.97926L24.2041 8.81734C24.4258 9.00728 24.7081 9.11168 25 9.11168C25.2919 9.11168 25.5742 9.00728 25.7959 8.81734L26.7811 7.97916L27.3072 9.16324C27.4248 9.43031 27.6338 9.64661 27.8968 9.77316C28.1597 9.89971 28.4592 9.9282 28.7412 9.85348L29.9919 9.52613L29.9515 10.8199C29.9413 11.1117 30.0359 11.3975 30.218 11.6257C30.4002 11.8539 30.6579 12.0094 30.9447 12.0642L32.211 12.3107L31.6153 13.4571C31.4803 13.7153 31.4417 14.0131 31.5066 14.2972C31.5714 14.5812 31.7354 14.8328 31.9691 15.0068L33.0054 15.7829L31.9677 16.5622C31.7344 16.7364 31.5709 16.9879 31.5063 17.2717C31.4417 17.5556 31.4803 17.8531 31.6152 18.1111L32.2109 19.2582L30.9445 19.5046C30.6578 19.5594 30.4001 19.7149 30.2179 19.943C30.0357 20.1711 29.9411 20.4568 29.9512 20.7486L29.9916 22.0423L28.7407 21.7148C28.4587 21.64 28.1593 21.6684 27.8964 21.7949C27.6334 21.9213 27.4243 22.1375 27.3066 22.4045L26.7807 23.5885L25.7958 22.7504C25.5741 22.5605 25.2918 22.4562 24.9999 22.4562C24.708 22.4562 24.4257 22.5605 24.204 22.7504L23.2191 23.5885L22.6932 22.4045C22.5975 22.1873 22.4408 22.0026 22.2421 21.8729C22.0433 21.7432 21.8111 21.6741 21.5738 21.674C21.4676 21.6741 21.3619 21.6878 21.2592 21.7147L20.0085 22.0422L20.0489 20.7483C20.059 20.4565 19.9645 20.1707 19.7823 19.9425C19.6002 19.7144 19.3424 19.5588 19.0557 19.5041L17.7891 19.2578L18.3848 18.1107C18.5196 17.8528 18.5582 17.5553 18.4936 17.2715C18.4291 16.9877 18.2655 16.7361 18.0323 16.562L16.9946 15.7827L18.031 15.0067C18.2647 14.8327 18.4287 14.5811 18.4936 14.2971C18.5584 14.013 18.5199 13.7152 18.3849 13.457L17.7892 12.3104L19.0554 12.0639C19.3422 12.0092 19.6 11.8537 19.7822 11.6254C19.9644 11.3972 20.059 11.1113 20.0488 10.8195ZM5.07812 13.4048C5.08129 12.5722 5.41268 11.7743 6.00039 11.1844C6.58809 10.5945 7.38471 10.2601 8.21738 10.2539H18.4686L18.4783 10.5712L17.0525 10.8553C16.7326 10.9187 16.4509 11.1062 16.2689 11.3768C16.0868 11.6474 16.0194 11.9791 16.0812 12.2993C16.1036 12.422 16.1426 12.5412 16.197 12.6535L16.3083 12.8906H8.16602C8.06765 12.8866 7.96951 12.9029 7.87775 12.9385C7.78598 12.9742 7.70256 13.0284 7.63271 13.0978C7.56286 13.1672 7.50808 13.2502 7.4718 13.3417C7.43552 13.4332 7.41853 13.5313 7.42188 13.6296V35.3515H5.07812V13.4048ZM46.9727 39.1057C46.9712 39.5138 46.889 39.9175 46.7308 40.2937C46.5726 40.6698 46.3415 41.0109 46.0509 41.2974C45.7603 41.5839 45.4159 41.81 45.0375 41.9627C44.6591 42.1155 44.2542 42.1919 43.8462 42.1875H6.15381C5.74577 42.1919 5.34089 42.1155 4.9625 41.9627C4.58411 41.81 4.23969 41.5839 3.94908 41.2974C3.65846 41.0109 3.4274 40.6698 3.26921 40.2937C3.11101 39.9175 3.02881 39.5138 3.02734 39.1057V36.914H18.9271L19.4879 37.4883C19.9291 37.9594 20.4632 38.3337 21.0565 38.5879C21.6498 38.842 22.2893 38.9704 22.9347 38.9648H27.0655C27.7109 38.9703 28.3504 38.842 28.9436 38.5879C29.5369 38.3337 30.071 37.9593 30.5122 37.4883L31.073 36.914H46.9727V39.1057Z" fill="white"/>
<path d="M25 21.0719C26.0459 21.0719 27.0683 20.7618 27.9379 20.1807C28.8075 19.5996 29.4853 18.7738 29.8856 17.8075C30.2858 16.8412 30.3905 15.778 30.1865 14.7522C29.9824 13.7264 29.4788 12.7841 28.7392 12.0446C27.9997 11.305 27.0574 10.8014 26.0317 10.5973C25.0059 10.3933 23.9426 10.498 22.9763 10.8983C22.0101 11.2985 21.1842 11.9763 20.6031 12.8459C20.0221 13.7155 19.7119 14.7379 19.7119 15.7838C19.7135 17.1858 20.2712 18.5299 21.2625 19.5213C22.2539 20.5126 23.598 21.0703 25 21.0719ZM25 12.0582C25.7369 12.0582 26.4572 12.2767 27.0698 12.6861C27.6825 13.0955 28.16 13.6773 28.442 14.3581C28.724 15.0389 28.7978 15.7879 28.654 16.5106C28.5102 17.2333 28.1554 17.8972 27.6344 18.4182C27.1134 18.9392 26.4495 19.2941 25.7268 19.4378C25.0041 19.5816 24.255 19.5078 23.5743 19.2258C22.8935 18.9438 22.3117 18.4663 21.9023 17.8536C21.4929 17.241 21.2744 16.5207 21.2744 15.7838C21.2755 14.7961 21.6684 13.8491 22.3668 13.1507C23.0653 12.4522 24.0123 12.0593 25 12.0582Z" fill="white"/>
</svg>
