<svg width="50" height="50" viewBox="0 0 50 50" fill="none" xmlns="http://www.w3.org/2000/svg">
<path d="M21.875 17.1875C20.5826 17.1875 19.5312 18.2388 19.5312 19.5313V22.6425C19.6119 25.7325 24.1382 25.7328 24.2187 22.6425L24.2188 21.637C32.7995 19.5974 30.5115 7.77087 22.6562 7.81261C18.779 7.8125 15.625 10.9665 15.625 14.8438C15.7076 17.9349 20.2311 17.9336 20.3125 14.8437C20.3125 13.5513 21.3638 12.5 22.6562 12.5C23.9487 12.5 25 13.5513 25 14.8438C25 16.0027 24.6284 17.1875 21.875 17.1875ZM22.6562 10.9375C20.5025 10.9375 18.75 12.69 18.75 14.8438C18.75 15.2748 18.3998 15.625 17.9688 15.625C17.5377 15.625 17.1875 15.2748 17.1875 14.8438C17.1875 11.8286 19.6411 9.375 22.6562 9.375C25.6714 9.375 28.125 11.8286 28.125 14.8438C28.125 15.9378 27.7786 19.5595 23.3246 20.2126C22.9408 20.269 22.6562 20.5978 22.6562 20.9854V22.6425C22.6521 23.6606 21.0986 23.6666 21.0938 22.6425L21.0938 19.5313C21.0938 19.1002 21.4439 18.75 21.875 18.75C25.7492 18.75 26.5625 16.626 26.5625 14.8438C26.5625 12.69 24.81 10.9375 22.6562 10.9375ZM21.875 25.7813C18.7845 25.8622 18.7851 30.3882 21.8751 30.4688C24.9655 30.3878 24.9649 25.8618 21.875 25.7813ZM21.875 28.9063C20.8535 28.9013 20.8536 27.3486 21.875 27.3438C22.8965 27.3488 22.8964 28.9014 21.875 28.9063Z" fill="white"/>
<path d="M22.6799 33.5937H15.625C15.4175 33.5937 15.2191 33.6761 15.0726 33.8226L11.7187 37.1765V33.3046C11.7187 33.0025 11.5448 32.7278 11.2717 32.5989C7.74689 30.9288 5.46875 27.3331 5.46875 23.4375V15.625C5.46875 10.025 10.025 5.46875 15.625 5.46875H29.6875C35.2875 5.46875 39.8437 10.025 39.8437 15.625V23.4375C39.777 23.9827 39.8706 24.6255 40.5343 24.6918C41.2343 24.7605 41.4841 24.0237 41.4062 23.4375L41.4062 15.625C41.4062 9.1629 36.1496 3.90625 29.6875 3.90625H15.625C9.1629 3.90625 3.90625 9.1629 3.90625 15.625V23.4375C3.90625 27.7672 6.34384 31.7757 10.1562 33.7868V39.0625C10.1344 39.7371 11.0258 40.109 11.4899 39.6148L15.9485 35.1562H22.6799C23.7012 35.1524 23.702 33.5976 22.6799 33.5937Z" fill="white"/>
<path d="M46.0609 45.0882L44.6861 40.5045C48.838 33.4314 43.3557 24.077 35.1561 24.2189C29.1252 24.2188 24.2187 29.1252 24.2187 35.1563C24.1023 43.8936 34.4303 49.2428 41.4749 44.0743L44.9333 45.9953C45.5145 46.3459 46.2794 45.7327 46.0609 45.0882ZM43.0916 40.6281L44.0117 43.6966L41.7915 42.4629C41.5184 42.3119 41.1781 42.3371 40.9302 42.5308C39.2616 43.8393 37.265 44.5313 35.1562 44.5313C22.7215 44.0182 22.7203 26.2948 35.1563 25.7812C40.3259 25.7813 44.5312 29.9866 44.5312 35.1563C44.5312 36.8561 44.0613 38.5307 43.1717 39.9986C43.0572 40.1878 43.0283 40.4167 43.0916 40.6281Z" fill="white"/>
<path d="M30.2421 34.6015C29.4978 33.905 28.428 34.9572 29.1328 35.7109C29.86 36.4216 30.9494 35.3381 30.2421 34.6015ZM35.7109 34.6015C34.9754 33.8998 33.8962 34.97 34.6016 35.7109C35.3292 36.4243 36.4186 35.3352 35.7109 34.6015ZM41.0545 34.5077C40.2889 33.9802 39.4155 35.0642 40.0703 35.7109C40.9062 36.4732 41.98 35.1563 41.0545 34.5077Z" fill="white"/>
</svg>
