<svg width="50" height="50" viewBox="0 0 50 50" fill="none" xmlns="http://www.w3.org/2000/svg">
<g clip-path="url(#clip0_244_3048)">
<path d="M28.0833 45.9635H22.0052C21.8671 45.9635 21.7346 46.0184 21.6369 46.116C21.5392 46.2137 21.4844 46.3462 21.4844 46.4843C21.4844 46.6225 21.5392 46.7549 21.6369 46.8526C21.7346 46.9503 21.8671 47.0052 22.0052 47.0052H28.0833C28.2215 47.0052 28.3539 46.9503 28.4516 46.8526C28.5493 46.7549 28.6042 46.6225 28.6042 46.4843C28.6042 46.3462 28.5493 46.2137 28.4516 46.116C28.3539 46.0184 28.2215 45.9635 28.0833 45.9635Z" fill="white"/>
<path d="M41.2606 21.9792H40.1043V2.43229C40.1043 2.11288 40.0414 1.79659 39.9192 1.50149C39.7969 1.20639 39.6178 0.938261 39.3919 0.712402C39.1661 0.486543 38.8979 0.307381 38.6028 0.185147C38.3077 0.0629131 37.9914 0 37.672 0L12.3283 0C11.6832 0 11.0645 0.256259 10.6084 0.712402C10.1523 1.16854 9.896 1.78721 9.896 2.43229V6.77083H7.18766C7.04953 6.77083 6.91705 6.82571 6.81938 6.92338C6.7217 7.02106 6.66683 7.15353 6.66683 7.29167V25C6.66683 25.1381 6.7217 25.2706 6.81938 25.3683C6.91705 25.466 7.04953 25.5208 7.18766 25.5208H9.896V30.1719H7.10433C6.9662 30.1719 6.83372 30.2267 6.73604 30.3244C6.63837 30.4221 6.5835 30.5546 6.5835 30.6927V38.9323C6.5835 39.0704 6.63837 39.2029 6.73604 39.3006C6.83372 39.3983 6.9662 39.4531 7.10433 39.4531H9.896V47.5677C9.896 48.2128 10.1523 48.8315 10.6084 49.2876C11.0645 49.7437 11.6832 50 12.3283 50H37.672C37.9914 50 38.3077 49.9371 38.6028 49.8148C38.8979 49.6926 39.1661 49.5135 39.3919 49.2876C39.6178 49.0617 39.7969 48.7936 39.9192 48.4985C40.0414 48.2034 40.1043 47.8871 40.1043 47.5677V31.2865H41.2606C41.3987 31.2865 41.5312 31.2316 41.6289 31.1339C41.7265 31.0362 41.7814 30.9038 41.7814 30.7656V22.5C41.7814 22.3619 41.7265 22.2294 41.6289 22.1317C41.5312 22.034 41.3987 21.9792 41.2606 21.9792ZM10.9377 2.43229C10.939 2.0639 11.086 1.71098 11.3465 1.45049C11.607 1.18999 11.9599 1.04304 12.3283 1.04167H37.672C38.0404 1.04304 38.3933 1.18999 38.6538 1.45049C38.9143 1.71098 39.0613 2.0639 39.0627 2.43229V3.39583C38.6571 3.10597 38.1706 2.95109 37.672 2.95312H12.3283C11.8298 2.95109 11.3433 3.10597 10.9377 3.39583V2.43229ZM7.7085 7.8125H21.4845V15.7448L19.7918 14.0625C19.7434 14.0137 19.6858 13.9749 19.6223 13.9485C19.5589 13.9221 19.4908 13.9084 19.422 13.9084C19.3533 13.9084 19.2852 13.9221 19.2217 13.9485C19.1583 13.9749 19.1007 14.0137 19.0522 14.0625L17.4897 15.625L14.5835 12.6823C14.4859 12.5853 14.3539 12.5308 14.2163 12.5308C14.0787 12.5308 13.9467 12.5853 13.8491 12.6823L7.7085 18.8281V7.8125ZM21.4845 19.5677L18.2293 16.3333L19.4064 15.1562L21.4897 17.2396L21.4845 19.5677ZM7.7085 24.4792V20.3125L14.2241 13.8021L21.4845 21.0417V24.4792H7.7085ZM7.62516 38.4323V31.1927H21.5731V38.4115L7.62516 38.4323ZM39.0627 47.5677C39.0613 47.9361 38.9143 48.289 38.6538 48.5495C38.3933 48.81 38.0404 48.957 37.672 48.9583H12.3283C11.9599 48.957 11.607 48.81 11.3465 48.5495C11.086 48.289 10.939 47.9361 10.9377 47.5677V43.75C11.345 44.0358 11.8307 44.1886 12.3283 44.1875H37.672C38.1696 44.1886 38.6554 44.0358 39.0627 43.75V47.5677ZM39.0627 41.7552C39.0613 42.1231 38.9142 42.4755 38.6535 42.7352C38.3929 42.9948 38.0399 43.1406 37.672 43.1406H12.3283C11.9604 43.1406 11.6074 42.9948 11.3468 42.7352C11.0862 42.4755 10.939 42.1231 10.9377 41.7552V39.4531H22.0939C22.232 39.4531 22.3645 39.3983 22.4622 39.3006C22.5599 39.2029 22.6147 39.0704 22.6147 38.9323V30.6719C22.6147 30.5337 22.5599 30.4013 22.4622 30.3036C22.3645 30.2059 22.232 30.151 22.0939 30.151H10.9377V25.5208H22.0054C22.1435 25.5208 22.276 25.466 22.3737 25.3683C22.4713 25.2706 22.5262 25.1381 22.5262 25V7.29167C22.5262 7.15353 22.4713 7.02106 22.3737 6.92338C22.276 6.82571 22.1435 6.77083 22.0054 6.77083H10.9377V5.38021C10.939 5.01229 11.0862 4.65992 11.3468 4.40025C11.6074 4.14059 11.9604 3.99479 12.3283 3.99479H37.672C38.0399 3.99479 38.3929 4.14059 38.6535 4.40025C38.9142 4.65992 39.0613 5.01229 39.0627 5.38021V21.9792H26.271C26.1329 21.9792 26.0004 22.034 25.9027 22.1317C25.805 22.2294 25.7502 22.3619 25.7502 22.5V30.7656C25.7502 30.9038 25.805 31.0362 25.9027 31.1339C26.0004 31.2316 26.1329 31.2865 26.271 31.2865H39.0627V41.7552ZM40.7397 30.2448H26.7918V23.0208H40.7397V30.2448Z" fill="white"/>
<path d="M31.3389 15.4531C31.9229 15.4531 32.4939 15.2799 32.9795 14.9554C33.4652 14.6309 33.8437 14.1697 34.0672 13.6301C34.2907 13.0905 34.3492 12.4967 34.2353 11.9239C34.1213 11.351 33.84 10.8248 33.427 10.4118C33.014 9.99883 32.4878 9.71757 31.915 9.60362C31.3421 9.48967 30.7484 9.54815 30.2088 9.77167C29.6691 9.99518 29.2079 10.3737 28.8834 10.8593C28.5589 11.345 28.3857 11.9159 28.3857 12.5C28.3871 13.2828 28.6987 14.0331 29.2522 14.5867C29.8057 15.1402 30.5561 15.4517 31.3389 15.4531ZM31.3389 10.5885C31.7169 10.5885 32.0865 10.7006 32.4008 10.9107C32.7152 11.1207 32.9602 11.4192 33.1048 11.7685C33.2495 12.1178 33.2874 12.5021 33.2136 12.8729C33.1398 13.2437 32.9578 13.5843 32.6905 13.8516C32.4232 14.1189 32.0826 14.301 31.7118 14.3747C31.341 14.4485 30.9567 14.4106 30.6074 14.266C30.2581 14.1213 29.9596 13.8763 29.7495 13.562C29.5395 13.2476 29.4274 12.8781 29.4274 12.5C29.4274 11.9931 29.6288 11.5069 29.9873 11.1484C30.3457 10.7899 30.8319 10.5885 31.3389 10.5885Z" fill="white"/>
<path d="M28.2135 18.1406V17.6666H34.4635V18.1406C34.4635 18.2787 34.5184 18.4112 34.6161 18.5089C34.7138 18.6065 34.8462 18.6614 34.9844 18.6614H36.9792C37.1173 18.6614 37.2498 18.6065 37.3474 18.5089C37.4451 18.4112 37.5 18.2787 37.5 18.1406V16.1458C37.5 16.0077 37.4451 15.8752 37.3474 15.7775C37.2498 15.6798 37.1173 15.625 36.9792 15.625H36.5V9.37496H36.9792C37.1173 9.37496 37.2498 9.32009 37.3474 9.22241C37.4451 9.12474 37.5 8.99226 37.5 8.85413V6.85933C37.5 6.7212 37.4451 6.58872 37.3474 6.49105C37.2498 6.39337 37.1173 6.3385 36.9792 6.3385H34.9844C34.8462 6.3385 34.7138 6.39337 34.6161 6.49105C34.5184 6.58872 34.4635 6.7212 34.4635 6.85933V7.33329H28.2135V6.85933C28.2135 6.7212 28.1587 6.58872 28.061 6.49105C27.9633 6.39337 27.8308 6.3385 27.6927 6.3385H25.6927C25.5546 6.3385 25.4221 6.39337 25.3244 6.49105C25.2267 6.58872 25.1719 6.7212 25.1719 6.85933V8.85413C25.1719 8.99226 25.2267 9.12474 25.3244 9.22241C25.4221 9.32009 25.5546 9.37496 25.6927 9.37496H26.1719V15.625H25.6927C25.5546 15.625 25.4221 15.6798 25.3244 15.7775C25.2267 15.8752 25.1719 16.0077 25.1719 16.1458V18.1406C25.1719 18.2787 25.2267 18.4112 25.3244 18.5089C25.4221 18.6065 25.5546 18.6614 25.6927 18.6614H27.6927C27.8308 18.6614 27.9633 18.6065 28.061 18.5089C28.1587 18.4112 28.2135 18.2787 28.2135 18.1406ZM36.4583 17.6198H35.5052V16.6666H36.4583V17.6198ZM36.4583 7.38017V8.33329H35.5052V7.38017H36.4583ZM26.2135 7.38017H27.1719V8.33329H26.2135V7.38017ZM27.2135 9.37496H27.6927C27.8308 9.37496 27.9633 9.32009 28.061 9.22241C28.1587 9.12474 28.2135 8.99226 28.2135 8.85413V8.37496H34.4635V8.85413C34.4635 8.99226 34.5184 9.12474 34.6161 9.22241C34.7138 9.32009 34.8462 9.37496 34.9844 9.37496H35.4583V15.625H34.9844C34.8462 15.625 34.7138 15.6798 34.6161 15.7775C34.5184 15.8752 34.4635 16.0077 34.4635 16.1458V16.625H28.2135V16.1458C28.2135 16.0077 28.1587 15.8752 28.061 15.7775C27.9633 15.6798 27.8308 15.625 27.6927 15.625H27.2135V9.37496ZM26.2135 17.6198V16.6666H27.1719V17.6198H26.2135ZM12.5 22.4791H16.6667C16.8048 22.4791 16.9373 22.4243 17.035 22.3266C17.1326 22.2289 17.1875 22.0964 17.1875 21.9583C17.1875 21.8202 17.1326 21.6877 17.035 21.59C16.9373 21.4923 16.8048 21.4375 16.6667 21.4375H12.5C12.3619 21.4375 12.2294 21.4923 12.1317 21.59C12.034 21.6877 11.9792 21.8202 11.9792 21.9583C11.9792 22.0964 12.034 22.2289 12.1317 22.3266C12.2294 22.4243 12.3619 22.4791 12.5 22.4791ZM38.6406 24.552H28.8958C28.7577 24.552 28.6252 24.6069 28.5275 24.7046C28.4299 24.8023 28.375 24.9347 28.375 25.0729C28.375 25.211 28.4299 25.3435 28.5275 25.4412C28.6252 25.5388 28.7577 25.5937 28.8958 25.5937H38.6406C38.7788 25.5937 38.9112 25.5388 39.0089 25.4412C39.1066 25.3435 39.1615 25.211 39.1615 25.0729C39.1615 24.9347 39.1066 24.8023 39.0089 24.7046C38.9112 24.6069 38.7788 24.552 38.6406 24.552ZM32.8125 27.5468H28.8958C28.7577 27.5468 28.6252 27.6017 28.5275 27.6994C28.4299 27.7971 28.375 27.9295 28.375 28.0677C28.375 28.2058 28.4299 28.3383 28.5275 28.436C28.6252 28.5336 28.7577 28.5885 28.8958 28.5885H32.8125C32.9506 28.5885 33.0831 28.5336 33.1808 28.436C33.2785 28.3383 33.3333 28.2058 33.3333 28.0677C33.3333 27.9295 33.2785 27.7971 33.1808 27.6994C33.0831 27.6017 32.9506 27.5468 32.8125 27.5468ZM38.6406 27.5468H35.2187C35.0806 27.5468 34.9481 27.6017 34.8505 27.6994C34.7528 27.7971 34.6979 27.9295 34.6979 28.0677C34.6979 28.2058 34.7528 28.3383 34.8505 28.436C34.9481 28.5336 35.0806 28.5885 35.2187 28.5885H38.6406C38.7788 28.5885 38.9112 28.5336 39.0089 28.436C39.1066 28.3383 39.1615 28.2058 39.1615 28.0677C39.1615 27.9295 39.1066 27.7971 39.0089 27.6994C38.9112 27.6017 38.7788 27.5468 38.6406 27.5468ZM9.72396 33.7604H19.4687C19.6069 33.7604 19.7394 33.7055 19.837 33.6078C19.9347 33.5102 19.9896 33.3777 19.9896 33.2395C19.9896 33.1014 19.9347 32.9689 19.837 32.8713C19.7394 32.7736 19.6069 32.7187 19.4687 32.7187H9.72396C9.58582 32.7187 9.45335 32.7736 9.35567 32.8713C9.258 32.9689 9.20312 33.1014 9.20312 33.2395C9.20312 33.3777 9.258 33.5102 9.35567 33.6078C9.45335 33.7055 9.58582 33.7604 9.72396 33.7604ZM13.6406 36.7552C13.7788 36.7552 13.9112 36.7003 14.0089 36.6026C14.1066 36.505 14.1615 36.3725 14.1615 36.2343C14.1615 36.0962 14.1066 35.9637 14.0089 35.8661C13.9112 35.7684 13.7788 35.7135 13.6406 35.7135H9.72396C9.58582 35.7135 9.45335 35.7684 9.35567 35.8661C9.258 35.9637 9.20312 36.0962 9.20312 36.2343C9.20312 36.3725 9.258 36.505 9.35567 36.6026C9.45335 36.7003 9.58582 36.7552 9.72396 36.7552H13.6406ZM19.4687 35.7135H16.0521C15.9139 35.7135 15.7815 35.7684 15.6838 35.8661C15.5861 35.9637 15.5312 36.0962 15.5312 36.2343C15.5312 36.3725 15.5861 36.505 15.6838 36.6026C15.7815 36.7003 15.9139 36.7552 16.0521 36.7552H19.4687C19.6069 36.7552 19.7394 36.7003 19.837 36.6026C19.9347 36.505 19.9896 36.3725 19.9896 36.2343C19.9896 36.0962 19.9347 35.9637 19.837 35.8661C19.7394 35.7684 19.6069 35.7135 19.4687 35.7135ZM25.75 36.7448V38.9323C25.75 39.0704 25.8049 39.2029 25.9025 39.3005C26.0002 39.3982 26.1327 39.4531 26.2708 39.4531C26.409 39.4531 26.5414 39.3982 26.6391 39.3005C26.7368 39.2029 26.7917 39.0704 26.7917 38.9323V38.3593H36.9792V38.9323C36.9792 39.0704 37.034 39.2029 37.1317 39.3005C37.2294 39.3982 37.3619 39.4531 37.5 39.4531C37.6381 39.4531 37.7706 39.3982 37.8683 39.3005C37.966 39.2029 38.0208 39.0704 38.0208 38.9323V36.7448C38.0208 36.6066 37.966 36.4741 37.8683 36.3765C37.7706 36.2788 37.6381 36.2239 37.5 36.2239C37.3619 36.2239 37.2294 36.2788 37.1317 36.3765C37.034 36.4741 36.9792 36.6066 36.9792 36.7448V37.3177H26.7917V36.7448C26.7917 36.6066 26.7368 36.4741 26.6391 36.3765C26.5414 36.2788 26.409 36.2239 26.2708 36.2239C26.1327 36.2239 26.0002 36.2788 25.9025 36.3765C25.8049 36.4741 25.75 36.6066 25.75 36.7448Z" fill="white"/>
</g>
<defs>
<clipPath id="clip0_244_3048">
<rect width="50" height="50" fill="white"/>
</clipPath>
</defs>
</svg>
