<svg width="46" height="27" viewBox="0 0 46 27" fill="none" xmlns="http://www.w3.org/2000/svg">
<path d="M1.60763 2.16663C1.60763 2.62695 1.29942 2.96747 0.7707 2.96747C0.330406 2.96747 0 2.62695 0 2.16663C0 1.72584 0.352235 1.36546 0.814729 1.36546C1.29942 1.36546 1.60763 1.72584 1.60763 2.16663ZM0.388865 26.2372V7.82465H1.21876V26.2372H0.388865ZM28.8219 13.1182C28.8219 22.4012 23.1554 26.6211 16.9528 26.6211C10.6166 26.6211 5.48555 22.0567 5.48555 13.5022C5.48555 4.71854 10.7953 7.31707e-08 17.399 7.31707e-08C23.8687 -0.000672899 28.8219 4.64082 28.8219 13.1182ZM6.32655 13.31C6.32655 20.3487 10.0776 25.8166 16.992 25.8166C23.9546 25.8166 27.9479 20.1804 27.9479 13.23C27.9479 6.78457 24.7482 0.902456 17.4467 0.902456C10.1453 0.902456 6.32655 6.44068 6.32655 13.31ZM31.8677 24.2421C33.26 25.086 35.6631 25.901 37.7299 25.901C41.6526 25.901 45.1412 23.4053 45.1412 19.7319C45.1412 16.3229 42.8173 14.5443 38.8717 13.0163C35.3404 11.6488 32.1655 10.1646 32.1655 6.52043C32.1655 2.72318 35.4551 0.03735 39.9262 0.03735C42.3304 0.03735 44.1441 0.651101 44.9877 1.18813L44.6525 1.85034C43.9354 1.39036 41.9974 0.804202 39.8892 0.804202C35.164 0.804202 33.1057 4.05129 33.1057 6.44169C33.1057 9.74329 35.9199 10.8473 39.5473 12.42C43.7649 14.2993 46 15.9565 46 19.5626C46 23.4369 42.9635 26.5817 37.5645 26.5817C35.3286 26.5817 32.756 25.8916 31.4906 25.009L31.8677 24.2421Z" fill="white"/>
</svg>
